<svg width="139" height="139" viewBox="0 0 139 139" fill="none" xmlns="http://www.w3.org/2000/svg">
<rect width="139" height="139" fill="white"/>
<path d="M44.8587 45.0651H100.336C101.487 45.0651 102.381 43.9678 102.381 42.5571C102.381 41.1463 101.487 40.049 100.336 40.049H44.8587C39.1064 40.049 34.5046 34.4058 34.5046 27.3519C34.5046 20.298 39.1064 14.6548 44.8587 14.6548H100.336C101.487 14.6548 102.381 13.5575 102.381 12.1467C102.381 10.736 101.487 9.63867 100.336 9.63867H44.8587C36.9333 9.63867 30.4141 17.6331 30.4141 27.3519C30.4141 37.0707 36.9333 45.0651 44.8587 45.0651Z" fill="#CCB05C"/>
<path d="M96.6294 20.2981H42.4302C41.9189 20.2981 41.5354 21.0819 41.5354 22.1791C41.5354 23.2764 41.9189 24.0602 42.4302 24.0602H96.5016C97.0129 24.0602 97.3964 23.2764 97.3964 22.1791C97.5242 21.0819 97.1408 20.2981 96.6294 20.2981Z" fill="#CCB05C"/>
<path d="M96.6294 30.6436H42.4302C41.9189 30.6436 41.5354 31.4273 41.5354 32.5246C41.5354 33.6219 41.9189 34.4057 42.4302 34.4057H96.5016C97.0129 34.4057 97.3964 33.6219 97.3964 32.5246C97.5242 31.5841 97.1408 30.6436 96.6294 30.6436Z" fill="#CCB05C"/>
<path d="M102.382 68.578C102.382 58.8592 95.8629 50.8647 87.9375 50.8647H23.1285C21.9781 50.8647 21.0833 51.962 21.0833 53.3728C21.0833 54.7836 21.9781 55.8809 23.1285 55.8809H87.9375C93.6898 55.8809 98.2916 61.524 98.2916 68.578C98.2916 75.6319 93.6898 81.2751 87.9375 81.2751H23.1285C21.9781 81.2751 21.0833 82.3723 21.0833 83.7831C21.0833 85.1939 21.9781 86.2912 23.1285 86.2912H87.9375C95.8629 86.1344 102.382 78.2967 102.382 68.578Z" fill="#CCB05C"/>
<path d="M27.9861 75.6323H88.7046C89.2159 75.6323 89.5994 74.8486 89.5994 73.7513C89.5994 72.654 89.2159 71.8702 88.7046 71.8702H27.9861C27.4748 71.8702 27.0913 72.654 27.0913 73.7513C27.0913 74.8486 27.4748 75.6323 27.9861 75.6323Z" fill="#CCB05C"/>
<path d="M27.9861 65.1294H88.7046C89.2159 65.1294 89.5994 64.3456 89.5994 63.2484C89.5994 62.1511 89.2159 61.3673 88.7046 61.3673H27.9861C27.4748 61.3673 27.0913 62.1511 27.0913 63.2484C27.0913 64.3456 27.4748 65.1294 27.9861 65.1294Z" fill="#CCB05C"/>
<path d="M116.827 122.345H45.3709C39.6186 122.345 35.0168 116.702 35.0168 109.648C35.0168 102.594 39.6186 96.9509 45.3709 96.9509H116.955C118.105 96.9509 119 95.8537 119 94.4429C119 93.0321 118.105 91.9348 116.955 91.9348H45.3709C37.4455 91.9348 30.9263 99.9293 30.9263 109.648C30.9263 119.367 37.3177 127.361 45.3709 127.361H116.955C118.105 127.361 119 126.264 119 124.853C118.872 123.442 117.977 122.345 116.827 122.345Z" fill="#CCB05C"/>
<path d="M114.398 102.594H42.558C42.0467 102.594 41.5354 103.378 41.5354 104.475C41.5354 105.573 42.0467 106.356 42.558 106.356H114.398C114.909 106.356 115.42 105.573 115.42 104.475C115.42 103.378 114.909 102.594 114.398 102.594Z" fill="#CCB05C"/>
<path d="M114.398 113.097H42.558C42.0467 113.097 41.5354 113.88 41.5354 114.978C41.5354 116.075 42.0467 116.859 42.558 116.859H114.398C114.909 116.859 115.42 116.075 115.42 114.978C115.42 113.88 114.909 113.097 114.398 113.097Z" fill="#CCB05C"/>
</svg>
