<svg width="130" height="53" viewBox="0 0 130 53" fill="none" xmlns="http://www.w3.org/2000/svg">
<path d="M10.7041 15.9494H35.6807C36.1986 15.9494 36.6015 15.4554 36.6015 14.8202C36.6015 14.1851 36.1986 13.6911 35.6807 13.6911H10.7041C8.11431 13.6911 6.04252 11.1505 6.04252 7.97469C6.04252 4.79893 8.11431 2.25832 10.7041 2.25832H35.6807C36.1986 2.25832 36.6015 1.76431 36.6015 1.12916C36.6015 0.494008 36.1986 0 35.6807 0H10.7041C7.13597 0 4.20093 3.5992 4.20093 7.97469C4.20093 12.3502 7.13597 15.9494 10.7041 15.9494Z" fill="#CCB05C"/>
<path d="M34.0117 4.79895H9.61061C9.38041 4.79895 9.20776 5.15181 9.20776 5.64582C9.20776 6.13983 9.38041 6.49269 9.61061 6.49269H33.9542C34.1844 6.49269 34.357 6.13983 34.357 5.64582C34.4146 5.15181 34.2419 4.79895 34.0117 4.79895Z" fill="#CCB05C"/>
<path d="M34.0117 9.45667H9.61061C9.38041 9.45667 9.20776 9.80953 9.20776 10.3035C9.20776 10.7975 9.38041 11.1504 9.61061 11.1504H33.9542C34.1844 11.1504 34.357 10.7975 34.357 10.3035C34.4146 9.8801 34.2419 9.45667 34.0117 9.45667Z" fill="#CCB05C"/>
<path d="M36.6017 26.5351C36.6017 22.1596 33.6666 18.5604 30.0985 18.5604H0.920797C0.402849 18.5604 0 19.0544 0 19.6896C0 20.3247 0.402849 20.8187 0.920797 20.8187H30.0985C32.6883 20.8187 34.7601 23.3594 34.7601 26.5351C34.7601 29.7109 32.6883 32.2515 30.0985 32.2515H0.920797C0.402849 32.2515 0 32.7455 0 33.3806C0 34.0158 0.402849 34.5098 0.920797 34.5098H30.0985C33.6666 34.4392 36.6017 30.9106 36.6017 26.5351Z" fill="#CCB05C"/>
<path d="M3.10768 29.7111H30.4438C30.674 29.7111 30.8467 29.3582 30.8467 28.8642C30.8467 28.3702 30.674 28.0173 30.4438 28.0173H3.10768C2.87748 28.0173 2.70483 28.3702 2.70483 28.8642C2.70483 29.3582 2.87748 29.7111 3.10768 29.7111Z" fill="#CCB05C"/>
<path d="M3.10768 24.9826H30.4438C30.674 24.9826 30.8467 24.6297 30.8467 24.1357C30.8467 23.6417 30.674 23.2888 30.4438 23.2888H3.10768C2.87748 23.2888 2.70483 23.6417 2.70483 24.1357C2.70483 24.6297 2.87748 24.9826 3.10768 24.9826Z" fill="#CCB05C"/>
<path d="M43.1049 50.7417H10.9345C8.34478 50.7417 6.27299 48.2011 6.27299 45.0253C6.27299 41.8496 8.34478 39.309 10.9345 39.309H43.1624C43.6804 39.309 44.0832 38.815 44.0832 38.1798C44.0832 37.5447 43.6804 37.0507 43.1624 37.0507H10.9345C7.36644 37.0507 4.4314 40.6499 4.4314 45.0253C4.4314 49.4008 7.30889 53 10.9345 53H43.1624C43.6804 53 44.0832 52.506 44.0832 51.8709C44.0257 51.2357 43.6228 50.7417 43.1049 50.7417Z" fill="#CCB05C"/>
<path d="M42.0111 41.8496H9.66816C9.43796 41.8496 9.20776 42.2025 9.20776 42.6965C9.20776 43.1905 9.43796 43.5433 9.66816 43.5433H42.0111C42.2413 43.5433 42.4715 43.1905 42.4715 42.6965C42.4715 42.2025 42.2413 41.8496 42.0111 41.8496Z" fill="#CCB05C"/>
<path d="M42.0111 46.5779H9.66816C9.43796 46.5779 9.20776 46.9307 9.20776 47.4247C9.20776 47.9188 9.43796 48.2716 9.66816 48.2716H42.0111C42.2413 48.2716 42.4715 47.9188 42.4715 47.4247C42.4715 46.9307 42.2413 46.5779 42.0111 46.5779Z" fill="#CCB05C"/>
<path d="M56.3245 2.5481C57.7282 2.5481 58.951 2.83335 59.9929 3.40386C61.0348 3.97437 61.8379 4.79447 62.4023 5.86417C62.9666 6.93387 63.2488 8.18186 63.2488 9.60813C63.2488 11.0344 62.9666 12.2824 62.4023 13.3521C61.8379 14.4218 61.0348 15.2419 59.9929 15.8124C58.951 16.3829 57.7282 16.6682 56.3245 16.6682H54.1322V21.2679H49.0095V2.5481H56.3245ZM55.9989 11.801C56.6935 11.801 57.2145 11.6138 57.5618 11.2394C57.9091 10.8472 58.0827 10.3034 58.0827 9.60813C58.0827 8.91282 57.9091 8.37797 57.5618 8.00358C57.2145 7.61135 56.6935 7.41524 55.9989 7.41524H54.1322V11.801H55.9989Z" fill="#CCB05C"/>
<path d="M77.4099 13.9404C77.4099 14.0296 77.3882 14.502 77.3448 15.3578H69.0964C69.2701 15.9105 69.5595 16.3383 69.9647 16.6414C70.3699 16.9267 70.8763 17.0693 71.4841 17.0693C72.0051 17.0693 72.4392 16.9891 72.7865 16.8286C73.1482 16.6682 73.539 16.3918 73.9586 15.9996L76.5199 19.182C75.3623 20.7509 73.633 21.5353 71.3322 21.5353C69.8995 21.5353 68.6406 21.2144 67.5553 20.5726C66.47 19.9129 65.6307 19.0037 65.0374 17.8448C64.4441 16.686 64.1474 15.3845 64.1474 13.9404C64.1474 12.4785 64.4368 11.177 65.0157 10.036C65.609 8.87717 66.4121 7.97683 67.425 7.33501C68.4525 6.69319 69.6029 6.37228 70.8763 6.37228C72.0774 6.37228 73.17 6.66645 74.154 7.25479C75.1525 7.84312 75.9411 8.7078 76.5199 9.84881C77.1133 10.9898 77.4099 12.3537 77.4099 13.9404ZM70.9197 10.4906C70.4133 10.4906 69.9936 10.66 69.6608 10.9987C69.328 11.3375 69.1109 11.8188 69.0096 12.4428H72.8299C72.7286 11.8367 72.5115 11.3642 72.1787 11.0255C71.8459 10.6689 71.4262 10.4906 70.9197 10.4906Z" fill="#CCB05C"/>
<path d="M83.6248 8.21752C84.4931 6.98736 85.7737 6.37228 87.4668 6.37228V11.7208C87.0761 11.6495 86.7144 11.6138 86.3815 11.6138C84.7029 11.6138 83.8636 12.6657 83.8636 14.7694V21.2679H78.958V6.63971H83.6248V8.21752Z" fill="#CCB05C"/>
<path d="M96.78 6.37228C97.8219 6.37228 98.777 6.68428 99.6452 7.30827C100.528 7.91443 101.223 8.79694 101.729 9.95578C102.25 11.1146 102.51 12.4518 102.51 13.9672C102.51 15.4826 102.25 16.8197 101.729 17.9785C101.223 19.1196 100.528 20.0021 99.6452 20.6261C98.777 21.2322 97.8219 21.5353 96.78 21.5353C95.4631 21.5353 94.4574 21.1163 93.7628 20.2784V26.4559H88.8572V6.63971H93.5241V7.84312C94.2331 6.86256 95.3184 6.37228 96.78 6.37228ZM95.6079 16.8286C96.1722 16.8286 96.6353 16.579 96.9971 16.0798C97.3588 15.5806 97.5397 14.8764 97.5397 13.9672C97.5397 13.0579 97.3588 12.3537 96.9971 11.8545C96.6353 11.3375 96.1722 11.079 95.6079 11.079C95.0435 11.079 94.5804 11.3375 94.2187 11.8545C93.8569 12.3537 93.676 13.0579 93.676 13.9672C93.676 14.8764 93.8569 15.5806 94.2187 16.0798C94.5804 16.579 95.0435 16.8286 95.6079 16.8286Z" fill="#CCB05C"/>
<path d="M117.036 6.63971V21.2679H112.369V19.8773C111.935 20.43 111.429 20.8489 110.85 21.1342C110.271 21.4016 109.656 21.5353 109.005 21.5353C107.5 21.5353 106.292 20.9737 105.38 19.8505C104.468 18.7095 104.012 16.998 104.012 14.716V6.63971H108.918V13.673C108.918 14.6714 109.048 15.3845 109.309 15.8124C109.569 16.2403 109.953 16.4542 110.459 16.4542C110.937 16.4542 111.335 16.2225 111.653 15.7589C111.971 15.2776 112.131 14.5288 112.131 13.5125V6.63971H117.036Z" fill="#CCB05C"/>
<path d="M123.857 21.5353C122.844 21.5353 121.846 21.4016 120.862 21.1342C119.878 20.8667 119.082 20.5191 118.474 20.0912L119.82 16.1066C120.37 16.5166 121.021 16.8375 121.773 17.0693C122.526 17.3011 123.257 17.417 123.966 17.417C124.53 17.417 124.921 17.3635 125.138 17.2565C125.369 17.1317 125.485 16.9534 125.485 16.7216C125.485 16.4899 125.34 16.3294 125.051 16.2403C124.776 16.1511 124.32 16.062 123.683 15.9729C122.714 15.8302 121.889 15.6519 121.209 15.438C120.529 15.2062 119.928 14.7694 119.407 14.1276C118.901 13.4858 118.648 12.5676 118.648 11.3731C118.648 10.4282 118.879 9.58139 119.342 8.8326C119.805 8.0838 120.493 7.48655 121.404 7.04085C122.33 6.59514 123.437 6.37228 124.725 6.37228C125.623 6.37228 126.498 6.47925 127.352 6.69319C128.22 6.8893 128.958 7.18347 129.566 7.5757L128.22 11.5603C127.178 10.8472 126.035 10.4906 124.791 10.4906C123.72 10.4906 123.184 10.7224 123.184 11.1859C123.184 11.4177 123.329 11.5871 123.618 11.694C123.908 11.7832 124.364 11.8723 124.986 11.9615C125.955 12.1041 126.773 12.2913 127.439 12.5231C128.119 12.7548 128.712 13.1916 129.219 13.8335C129.74 14.4753 130 15.3934 130 16.5879C130 17.4972 129.768 18.3262 129.305 19.075C128.842 19.8238 128.148 20.421 127.222 20.8667C126.295 21.3125 125.174 21.5353 123.857 21.5353Z" fill="#CCB05C"/>
<path d="M49.0095 28.407H56.4982C58.1913 28.407 59.6817 28.7903 60.9696 29.5569C62.272 30.3057 63.2777 31.3843 63.9868 32.7928C64.7104 34.2012 65.0721 35.8592 65.0721 37.7669C65.0721 39.6745 64.7104 41.3325 63.9868 42.741C63.2777 44.1494 62.272 45.237 60.9696 46.0036C59.6817 46.7524 58.1913 47.1268 56.4982 47.1268H49.0095V28.407ZM56.2811 42.2061C57.3809 42.2061 58.2564 41.8228 58.9076 41.0562C59.5732 40.2718 59.906 39.1753 59.906 37.7669C59.906 36.3584 59.5732 35.2709 58.9076 34.5043C58.2564 33.7198 57.3809 33.3276 56.2811 33.3276H54.1322V42.2061H56.2811Z" fill="#CCB05C"/>
<path d="M79.4237 39.7993C79.4237 39.8884 79.402 40.3609 79.3585 41.2167H71.1102C71.2838 41.7693 71.5732 42.1972 71.9784 42.5003C72.3836 42.7856 72.8901 42.9282 73.4979 42.9282C74.0188 42.9282 74.4529 42.848 74.8002 42.6875C75.162 42.5271 75.5527 42.2507 75.9724 41.8585L78.5337 45.0408C77.376 46.6097 75.6468 47.3942 73.3459 47.3942C71.9133 47.3942 70.6544 47.0733 69.569 46.4315C68.4837 45.7718 67.6444 44.8626 67.0511 43.7037C66.4578 42.5449 66.1612 41.2434 66.1612 39.7993C66.1612 38.3374 66.4506 37.0359 67.0294 35.8949C67.6227 34.736 68.4258 33.8357 69.4388 33.1939C70.4662 32.5521 71.6167 32.2312 72.8901 32.2312C74.0912 32.2312 75.1837 32.5253 76.1677 33.1137C77.1662 33.702 77.9549 34.5667 78.5337 35.7077C79.127 36.8487 79.4237 38.2126 79.4237 39.7993ZM72.9335 36.3495C72.427 36.3495 72.0074 36.5189 71.6745 36.8576C71.3417 37.1964 71.1247 37.6777 71.0234 38.3017H74.8436C74.7424 37.6956 74.5253 37.2231 74.1925 36.8844C73.8596 36.5278 73.44 36.3495 72.9335 36.3495Z" fill="#CCB05C"/>
<path d="M85.6169 47.3942C84.6039 47.3942 83.6054 47.2605 82.6214 46.993C81.6374 46.7256 80.8415 46.378 80.2337 45.9501L81.5795 41.9655C82.1294 42.3755 82.7806 42.6964 83.5331 42.9282C84.2856 43.16 85.0163 43.2758 85.7254 43.2758C86.2898 43.2758 86.6805 43.2224 86.8976 43.1154C87.1291 42.9906 87.2449 42.8123 87.2449 42.5805C87.2449 42.3488 87.1001 42.1883 86.8107 42.0992C86.5358 42.01 86.08 41.9209 85.4432 41.8317C84.4737 41.6891 83.6489 41.5108 82.9687 41.2969C82.2886 41.0651 81.6881 40.6283 81.1671 39.9865C80.6606 39.3447 80.4074 38.4265 80.4074 37.232C80.4074 36.2871 80.6389 35.4403 81.102 34.6915C81.5651 33.9427 82.2524 33.3454 83.1641 32.8997C84.0902 32.454 85.1972 32.2312 86.4851 32.2312C87.3823 32.2312 88.2578 32.3381 89.1116 32.5521C89.9798 32.7482 90.7178 33.0424 91.3256 33.4346L89.9798 37.4192C88.9379 36.7061 87.7947 36.3495 86.5503 36.3495C85.4794 36.3495 84.944 36.5813 84.944 37.0448C84.944 37.2766 85.0887 37.446 85.3781 37.5529C85.6675 37.6421 86.1234 37.7312 86.7456 37.8204C87.7152 37.963 88.5328 38.1502 89.1984 38.382C89.8785 38.6137 90.4718 39.0505 90.9783 39.6923C91.4993 40.3342 91.7597 41.2523 91.7597 42.4468C91.7597 43.3561 91.5282 44.1851 91.0651 44.9339C90.6021 45.6827 89.9075 46.2799 88.9813 46.7256C88.0552 47.1713 86.9337 47.3942 85.6169 47.3942Z" fill="#CCB05C"/>
<path d="M98.5631 32.2312C100.647 32.2312 102.239 32.8106 103.338 33.9694C104.438 35.1105 104.988 36.8755 104.988 39.2645V47.1268H100.43V45.2013C99.8655 46.6632 98.744 47.3942 97.0654 47.3942C96.1248 47.3942 95.3217 47.1981 94.656 46.8059C94.0048 46.3958 93.5056 45.852 93.1583 45.1746C92.8254 44.4793 92.659 43.7037 92.659 42.848C92.659 41.4039 93.1076 40.3074 94.0048 39.5586C94.902 38.8098 96.2623 38.4354 98.0856 38.4354H100.061C99.9017 37.2944 99.1564 36.7239 97.8251 36.7239C97.2897 36.7239 96.747 36.8309 96.1971 37.0448C95.6473 37.2409 95.177 37.5173 94.7862 37.8738L93.2234 33.8892C93.9035 33.3722 94.7211 32.9711 95.6762 32.6858C96.6457 32.3827 97.608 32.2312 98.5631 32.2312ZM98.5414 43.7572C98.8887 43.7572 99.1998 43.6413 99.4748 43.4096C99.7497 43.1778 99.9523 42.8301 100.083 42.3666V41.3504H98.867C97.8685 41.3504 97.3693 41.7604 97.3693 42.5805C97.3693 42.9193 97.4706 43.2045 97.6732 43.4363C97.8902 43.6502 98.1796 43.7572 98.5414 43.7572Z" fill="#CCB05C"/>
</svg>
