<svg width="253" height="103" viewBox="0 0 253 103" fill="none" xmlns="http://www.w3.org/2000/svg">
<path d="M20.8022 30.996H69.3417C70.3482 30.996 71.1311 30.0359 71.1311 28.8016C71.1311 27.5672 70.3482 26.6072 69.3417 26.6072H20.8022C15.7693 26.6072 11.743 21.6698 11.743 15.498C11.743 9.32622 15.7693 4.38881 20.8022 4.38881H69.3417C70.3482 4.38881 71.1311 3.42876 71.1311 2.19441C71.1311 0.960052 70.3482 0 69.3417 0H20.8022C13.868 0 8.16406 6.99467 8.16406 15.498C8.16406 24.0013 13.868 30.996 20.8022 30.996Z" fill="white"/>
<path d="M66.0982 9.32629H18.6772C18.2298 9.32629 17.8943 10.012 17.8943 10.9721C17.8943 11.9321 18.2298 12.6179 18.6772 12.6179H65.9864C66.4337 12.6179 66.7693 11.9321 66.7693 10.9721C66.8811 10.012 66.5456 9.32629 66.0982 9.32629Z" fill="white"/>
<path d="M66.0982 18.3782H18.6772C18.2298 18.3782 17.8943 19.0639 17.8943 20.024C17.8943 20.984 18.2298 21.6698 18.6772 21.6698H65.9864C66.4337 21.6698 66.7693 20.984 66.7693 20.024C66.8811 19.2011 66.5456 18.3782 66.0982 18.3782Z" fill="white"/>
<path d="M71.1315 51.5683C71.1315 43.065 65.4276 36.0703 58.4934 36.0703H1.78947C0.782894 36.0703 0 37.0304 0 38.2647C0 39.4991 0.782894 40.4591 1.78947 40.4591H58.4934C63.5263 40.4591 67.5526 45.3965 67.5526 51.5683C67.5526 57.7401 63.5263 62.6775 58.4934 62.6775H1.78947C0.782894 62.6775 0 63.6375 0 64.8719C0 66.1062 0.782894 67.0663 1.78947 67.0663H58.4934C65.4276 66.9291 71.1315 60.0716 71.1315 51.5683Z" fill="white"/>
<path d="M6.03949 57.7403H59.1645C59.6118 57.7403 59.9473 57.0546 59.9473 56.0945C59.9473 55.1345 59.6118 54.4487 59.1645 54.4487H6.03949C5.59212 54.4487 5.25659 55.1345 5.25659 56.0945C5.25659 57.0546 5.59212 57.7403 6.03949 57.7403Z" fill="white"/>
<path d="M6.03949 48.5511H59.1645C59.6118 48.5511 59.9473 47.8654 59.9473 46.9053C59.9473 45.9453 59.6118 45.2595 59.1645 45.2595H6.03949C5.59212 45.2595 5.25659 45.9453 5.25659 46.9053C5.25659 47.8654 5.59212 48.5511 6.03949 48.5511Z" fill="white"/>
<path d="M83.7699 98.6113H21.2502C16.2173 98.6113 12.191 93.6739 12.191 87.5021C12.191 81.3304 16.2173 76.393 21.2502 76.393H83.8818C84.8883 76.393 85.6712 75.4329 85.6712 74.1986C85.6712 72.9642 84.8883 72.0042 83.8818 72.0042H21.2502C14.316 72.0042 8.61206 78.9988 8.61206 87.5021C8.61206 96.0054 14.2042 103 21.2502 103H83.8818C84.8883 103 85.6712 102.04 85.6712 100.806C85.5594 99.5714 84.7765 98.6113 83.7699 98.6113Z" fill="white"/>
<path d="M81.6442 81.3303H18.789C18.3417 81.3303 17.8943 82.0161 17.8943 82.9761C17.8943 83.9362 18.3417 84.6219 18.789 84.6219H81.6442C82.0916 84.6219 82.539 83.9362 82.539 82.9761C82.539 82.0161 82.0916 81.3303 81.6442 81.3303Z" fill="white"/>
<path d="M81.6442 90.5194H18.789C18.3417 90.5194 17.8943 91.2052 17.8943 92.1652C17.8943 93.1253 18.3417 93.811 18.789 93.811H81.6442C82.0916 93.811 82.539 93.1253 82.539 92.1652C82.539 91.2052 82.0916 90.5194 81.6442 90.5194Z" fill="white"/>
<path d="M109.461 4.95206C112.189 4.95206 114.565 5.50642 116.59 6.61514C118.615 7.72386 120.175 9.31765 121.272 11.3965C122.369 13.4754 122.917 15.9007 122.917 18.6725C122.917 21.4443 122.369 23.8696 121.272 25.9485C120.175 28.0273 118.615 29.6211 116.59 30.7299C114.565 31.8386 112.189 32.3929 109.461 32.3929H105.2V41.332H95.2449V4.95206H109.461ZM108.828 22.9342C110.178 22.9342 111.19 22.5704 111.865 21.8428C112.54 21.0805 112.878 20.0238 112.878 18.6725C112.878 17.3212 112.54 16.2818 111.865 15.5542C111.19 14.792 110.178 14.4108 108.828 14.4108H105.2V22.9342H108.828Z" fill="white"/>
<path d="M150.438 27.0919C150.438 27.2651 150.396 28.1833 150.312 29.8463H134.282C134.619 30.9204 135.182 31.752 135.969 32.341C136.756 32.8953 137.741 33.1725 138.922 33.1725C139.934 33.1725 140.778 33.0166 141.453 32.7048C142.156 32.3929 142.915 31.8559 143.731 31.0937L148.709 37.2783C146.459 40.3272 143.098 41.8517 138.627 41.8517C135.842 41.8517 133.396 41.2281 131.287 39.9808C129.177 38.6988 127.546 36.9318 126.393 34.6797C125.24 32.4276 124.664 29.8983 124.664 27.0919C124.664 24.2508 125.226 21.7215 126.351 19.504C127.504 17.252 129.065 15.5022 131.034 14.2549C133.03 13.0076 135.266 12.384 137.741 12.384C140.075 12.384 142.198 12.9556 144.11 14.099C146.051 15.2424 147.584 16.9228 148.709 19.1402C149.862 21.3577 150.438 24.0082 150.438 27.0919ZM137.825 20.3876C136.841 20.3876 136.025 20.7167 135.378 21.375C134.732 22.0333 134.31 22.9688 134.113 24.1815H141.537C141.34 23.0034 140.919 22.0853 140.272 21.427C139.625 20.734 138.809 20.3876 137.825 20.3876Z" fill="white"/>
<path d="M162.516 15.97C164.203 13.5793 166.692 12.384 169.983 12.384V22.7782C169.223 22.6397 168.52 22.5704 167.873 22.5704C164.611 22.5704 162.98 24.6146 162.98 28.703V41.332H153.447V12.9037H162.516V15.97Z" fill="white"/>
<path d="M188.082 12.384C190.107 12.384 191.963 12.9903 193.65 14.203C195.366 15.381 196.715 17.096 197.7 19.3481C198.712 21.6002 199.218 24.1988 199.218 27.1438C199.218 30.0889 198.712 32.6874 197.7 34.9395C196.715 37.157 195.366 38.872 193.65 40.0847C191.963 41.2627 190.107 41.8517 188.082 41.8517C185.523 41.8517 183.568 41.0375 182.218 39.4091V51.4145H172.685V12.9037H181.754V15.2424C183.132 13.3368 185.241 12.384 188.082 12.384ZM185.804 32.7048C186.901 32.7048 187.801 32.2197 188.504 31.2496C189.207 30.2794 189.558 28.9109 189.558 27.1438C189.558 25.3768 189.207 24.0082 188.504 23.0381C187.801 22.0333 186.901 21.5309 185.804 21.5309C184.707 21.5309 183.807 22.0333 183.104 23.0381C182.401 24.0082 182.05 25.3768 182.05 27.1438C182.05 28.9109 182.401 30.2794 183.104 31.2496C183.807 32.2197 184.707 32.7048 185.804 32.7048Z" fill="white"/>
<path d="M227.448 12.9037V41.332H218.378V38.6295C217.534 39.7036 216.55 40.5178 215.425 41.0722C214.3 41.5919 213.105 41.8517 211.84 41.8517C208.915 41.8517 206.567 40.7603 204.795 38.5775C203.023 36.3601 202.137 33.0339 202.137 28.599V12.9037H211.671V26.5721C211.671 28.5124 211.924 29.8983 212.43 30.7299C212.936 31.5614 213.682 31.9772 214.666 31.9772C215.594 31.9772 216.367 31.5268 216.986 30.6259C217.605 29.6904 217.914 28.2352 217.914 26.2603V12.9037H227.448Z" fill="white"/>
<path d="M240.703 41.8517C238.735 41.8517 236.794 41.5919 234.882 41.0722C232.97 40.5525 231.423 39.8768 230.242 39.0453L232.857 31.3015C233.926 32.0984 235.191 32.7221 236.654 33.1725C238.116 33.6229 239.536 33.8481 240.914 33.8481C242.011 33.8481 242.77 33.7442 243.192 33.5363C243.642 33.2938 243.867 32.9473 243.867 32.4969C243.867 32.0465 243.586 31.7346 243.024 31.5614C242.489 31.3882 241.603 31.2149 240.366 31.0417C238.482 30.7645 236.879 30.418 235.557 30.0023C234.235 29.5518 233.068 28.703 232.056 27.4557C231.071 26.2084 230.579 24.424 230.579 22.1026C230.579 20.2663 231.029 18.6205 231.929 17.1653C232.829 15.7101 234.165 14.5494 235.937 13.6833C237.737 12.8171 239.888 12.384 242.391 12.384C244.134 12.384 245.836 12.5918 247.495 13.0076C249.182 13.3887 250.617 13.9604 251.798 14.7227L249.182 22.4664C247.158 21.0805 244.936 20.3876 242.517 20.3876C240.436 20.3876 239.396 20.838 239.396 21.7388C239.396 22.1892 239.677 22.5184 240.239 22.7263C240.802 22.8995 241.688 23.0727 242.897 23.246C244.781 23.5232 246.37 23.887 247.664 24.3374C248.986 24.7878 250.139 25.6367 251.123 26.884C252.135 28.1313 252.641 29.9156 252.641 32.237C252.641 34.0041 252.191 35.6152 251.292 37.0704C250.392 38.5256 249.042 39.6863 247.242 40.5525C245.442 41.4186 243.263 41.8517 240.703 41.8517Z" fill="white"/>
<path d="M95.2449 55.2061H109.798C113.089 55.2061 115.985 55.9511 118.488 57.4409C121.019 58.8961 122.974 60.9923 124.352 63.7294C125.758 66.4666 126.461 69.6888 126.461 73.3961C126.461 77.1034 125.758 80.3256 124.352 83.0628C122.974 85.7999 121.019 87.9134 118.488 89.4033C115.985 90.8585 113.089 91.5861 109.798 91.5861H95.2449V55.2061ZM109.376 82.0233C111.514 82.0233 113.215 81.2784 114.481 79.7886C115.774 78.2641 116.421 76.1333 116.421 73.3961C116.421 70.6589 115.774 68.5454 114.481 67.0556C113.215 65.5311 111.514 64.7689 109.376 64.7689H105.2V82.0233H109.376Z" fill="white"/>
<path d="M154.352 77.3459C154.352 77.5191 154.309 78.4373 154.225 80.1004H138.195C138.533 81.1745 139.095 82.006 139.883 82.595C140.67 83.1494 141.654 83.4266 142.835 83.4266C143.848 83.4266 144.692 83.2707 145.366 82.9588C146.07 82.647 146.829 82.11 147.644 81.3477L152.622 87.5323C150.372 90.5813 147.012 92.1058 142.54 92.1058C139.756 92.1058 137.309 91.4821 135.2 90.2348C133.091 88.9529 131.46 87.1858 130.307 84.9337C129.154 82.6816 128.577 80.1524 128.577 77.3459C128.577 74.5048 129.14 71.9755 130.265 69.7581C131.418 67.506 132.978 65.7563 134.947 64.509C136.944 63.2617 139.18 62.638 141.654 62.638C143.988 62.638 146.112 63.2097 148.024 64.3531C149.964 65.4965 151.497 67.1769 152.622 69.3943C153.775 71.6117 154.352 74.2623 154.352 77.3459ZM141.739 70.6416C140.754 70.6416 139.939 70.9708 139.292 71.6291C138.645 72.2874 138.223 73.2229 138.026 74.4355H145.451C145.254 73.2575 144.832 72.3393 144.185 71.681C143.538 70.9881 142.723 70.6416 141.739 70.6416Z" fill="white"/>
<path d="M166.387 92.1058C164.419 92.1058 162.478 91.8459 160.566 91.3262C158.654 90.8065 157.107 90.1309 155.926 89.2993L158.541 81.5556C159.61 82.3525 160.875 82.9762 162.338 83.4266C163.8 83.877 165.22 84.1022 166.598 84.1022C167.695 84.1022 168.454 83.9983 168.876 83.7904C169.326 83.5478 169.551 83.2014 169.551 82.7509C169.551 82.3005 169.27 81.9887 168.708 81.8155C168.173 81.6422 167.287 81.469 166.05 81.2957C164.166 81.0186 162.563 80.6721 161.241 80.2563C159.919 79.8059 158.752 78.957 157.74 77.7097C156.756 76.4624 156.263 74.6781 156.263 72.3567C156.263 70.5203 156.713 68.8746 157.613 67.4194C158.513 65.9642 159.849 64.8035 161.621 63.9373C163.421 63.0711 165.572 62.638 168.075 62.638C169.818 62.638 171.52 62.8459 173.179 63.2617C174.866 63.6428 176.301 64.2145 177.482 64.9767L174.866 72.7205C172.842 71.3346 170.62 70.6416 168.201 70.6416C166.12 70.6416 165.08 71.092 165.08 71.9929C165.08 72.4433 165.361 72.7724 165.923 72.9803C166.486 73.1536 167.372 73.3268 168.581 73.5C170.465 73.7772 172.054 74.141 173.348 74.5914C174.67 75.0419 175.823 75.8907 176.807 77.138C177.819 78.3853 178.325 80.1697 178.325 82.4911C178.325 84.2581 177.876 85.8692 176.976 87.3244C176.076 88.7796 174.726 89.9403 172.926 90.8065C171.126 91.6727 168.947 92.1058 166.387 92.1058Z" fill="white"/>
<path d="M191.547 62.638C195.597 62.638 198.69 63.7641 200.828 66.0162C202.965 68.2336 204.034 71.6637 204.034 76.3065V91.5861H195.175V87.8441C194.078 90.6852 191.899 92.1058 188.636 92.1058C186.809 92.1058 185.248 91.7247 183.954 90.9624C182.689 90.1655 181.718 89.1088 181.043 87.7922C180.397 86.4409 180.073 84.9337 180.073 83.2706C180.073 80.4642 180.945 78.3334 182.689 76.8782C184.432 75.423 187.076 74.6954 190.619 74.6954H194.458C194.148 72.4779 192.7 71.3692 190.113 71.3692C189.072 71.3692 188.018 71.5771 186.949 71.9929C185.88 72.374 184.966 72.911 184.207 73.604L181.17 65.8603C182.492 64.8555 184.081 64.0759 185.937 63.5216C187.821 62.9326 189.691 62.638 191.547 62.638ZM191.505 85.0377C192.18 85.0377 192.785 84.8125 193.319 84.3621C193.853 83.9116 194.247 83.236 194.5 82.3352V80.3603H192.138C190.197 80.3603 189.227 81.1572 189.227 82.7509C189.227 83.4092 189.424 83.9636 189.818 84.414C190.239 84.8298 190.802 85.0377 191.505 85.0377Z" fill="white"/>
</svg>
